<?xml version="1.0" encoding="UTF-8" standalone="no"?>
<!-- Created with Inkscape (http://www.inkscape.org/) -->

<svg
   xmlns:dc="http://purl.org/dc/elements/1.1/"
   xmlns:cc="http://creativecommons.org/ns#"
   xmlns:rdf="http://www.w3.org/1999/02/22-rdf-syntax-ns#"
   xmlns:svg="http://www.w3.org/2000/svg"
   xmlns="http://www.w3.org/2000/svg"
   xmlns:sodipodi="http://sodipodi.sourceforge.net/DTD/sodipodi-0.dtd"
   xmlns:inkscape="http://www.inkscape.org/namespaces/inkscape"
   width="60"
   height="60"
   id="svg2"
   version="1.1"
   inkscape:version="0.48.4 r9939"
   sodipodi:docname="logo.svg"
   inkscape:export-filename="/home/jacobian/Proyectos/bridge/img/logo60.png"
   inkscape:export-xdpi="90"
   inkscape:export-ydpi="90">
  <defs
     id="defs4" />
  <sodipodi:namedview
     id="base"
     pagecolor="#ffffff"
     bordercolor="#666666"
     borderopacity="1.0"
     inkscape:pageopacity="0.0"
     inkscape:pageshadow="2"
     inkscape:zoom="5.6"
     inkscape:cx="31.591036"
     inkscape:cy="26.564036"
     inkscape:document-units="px"
     inkscape:current-layer="layer1"
     showgrid="false"
     inkscape:showpageshadow="false"
     inkscape:window-width="1360"
     inkscape:window-height="743"
     inkscape:window-x="0"
     inkscape:window-y="0"
     inkscape:window-maximized="0" />
  <metadata
     id="metadata7">
    <rdf:RDF>
      <cc:Work
         rdf:about="">
        <dc:format>image/svg+xml</dc:format>
        <dc:type
           rdf:resource="http://purl.org/dc/dcmitype/StillImage" />
        <dc:title></dc:title>
      </cc:Work>
    </rdf:RDF>
  </metadata>
  <g
     inkscape:label="Capa 1"
     inkscape:groupmode="layer"
     id="layer1"
     transform="translate(0,-992.36218)"
     style="display:inline">
    <path
       sodipodi:type="arc"
       style="fill:#ffffff;fill-opacity:1;fill-rule:evenodd;stroke:#000000;stroke-width:1;stroke-linecap:round;stroke-linejoin:miter;stroke-miterlimit:4.0999999;stroke-opacity:1;stroke-dasharray:none;stroke-dashoffset:0"
       id="path3218"
       sodipodi:cx="40.027294"
       sodipodi:cy="20.856588"
       sodipodi:rx="29.041885"
       sodipodi:ry="29.041885"
       d="m 69.06918,20.856588 a 29.041885,29.041885 0 1 1 -3.6e-5,-0.04525"
       transform="matrix(0.98165705,0,0,0.98165705,-9.2930755,1001.8882)"
       sodipodi:start="0"
       sodipodi:end="6.2816273"
       sodipodi:open="true" />
    <path
       style="fill:#aa4400;fill-opacity:1;fill-rule:evenodd;stroke:none"
       d="m 2.2098677,27.172434 c 0,-0.205541 0.1149673,-1.047006 0.2554828,-1.869921 C 4.3082455,14.509784 12.412893,5.6782418 22.953603,2.9766964 c 2.656712,-0.6809058 4.230051,-0.8770376 7.03546,-0.8770376 2.816051,0 4.416965,0.1986508 7.049964,0.8748015 9.038555,2.3210881 16.499084,9.2922077 19.456542,18.1801927 0.618045,1.857401 1.093585,3.954549 0.933104,4.11503 -0.363723,0.363723 -7.073786,1.628214 -9.951344,1.875301 -2.645537,0.227163 -2.714785,0.231576 -2.714785,0.172996 0,-0.387329 -1.192474,-7.014976 -1.341695,-7.457003 -0.827823,-2.452195 -3.126586,-3.869953 -5.930892,-3.657864 -1.750463,0.132388 -3.614488,1.365601 -4.381519,2.898752 -0.182662,0.365106 -0.733348,2.024186 -1.223748,3.686845 -0.490402,1.662659 -0.914769,3.046148 -0.943041,3.07442 -0.02827,0.02827 -0.520317,-0.08202 -1.093436,-0.245097 l -1.042033,-0.2965 -0.867525,-2.967324 c -0.477139,-1.632027 -1.004362,-3.2011 -1.171605,-3.486828 -0.479405,-0.81904 -1.426834,-1.664987 -2.407589,-2.149703 -2.425441,-1.198718 -5.626504,-0.390592 -7.13445,1.801132 -0.464878,0.675676 -0.790981,1.590327 -0.992079,2.782574 l -0.150752,0.893755 -1.980095,0.07251 c -2.023074,0.07408 -2.64833,0.183579 -4.4227604,0.774519 -1.8550472,0.617787 -4.6211882,2.216277 -6.4360299,3.719233 -1.0145389,0.840189 -1.033427,0.847702 -1.033427,0.411033 z"
       id="path3825"
       inkscape:connector-curvature="0"
       transform="translate(0,992.36218)" />
    <path
       style="fill:#d45500;fill-opacity:1;fill-rule:evenodd;stroke:none"
       d="M 8.4601866,47.770925 C 4.2507003,42.687144 1.9608628,36.192105 2.1068719,29.749982 l 0.039861,-1.758735 1.0732871,-0.872675 c 3.8132309,-3.100484 7.4137367,-4.606203 11.1792987,-4.675143 0.783615,-0.01435 1.466223,0.01498 1.516907,0.06516 0.05068,0.05019 -0.523889,3.686736 -1.27683,8.08122 -1.514215,8.83761 -1.583,9.523146 -1.071623,10.680353 l 0.296111,0.670077 -0.43774,0.466344 c -1.292826,1.37731 -2.280332,2.835563 -3.304471,4.879723 L 9.3440701,48.838388 8.4601866,47.770925 z"
       id="path3827"
       inkscape:connector-curvature="0"
       transform="translate(0,992.36218)" />
    <path
       style="fill:#d45500;fill-opacity:1;fill-rule:evenodd;stroke:none"
       d="m 22.104983,36.641812 c 0.03279,-0.184179 0.227284,-1.777232 0.43222,-3.540119 0.204936,-1.762886 0.390056,-3.222693 0.411378,-3.244015 0.02132,-0.02132 0.468754,1.364219 0.994294,3.078979 l 0.955528,3.117746 -0.958637,0.287706 c -0.52725,0.158237 -1.169182,0.36575 -1.426515,0.461139 l -0.467878,0.173434 0.05961,-0.33487 0,0 z"
       id="path3829"
       inkscape:connector-curvature="0"
       transform="translate(0,992.36218)" />
    <path
       style="fill:#d45500;fill-opacity:1;fill-rule:evenodd;stroke:none"
       d="m 29.409371,27.559715 c -0.301697,-1.036951 -0.554691,-1.908518 -0.562208,-1.936814 -0.01148,-0.04319 0.06149,-0.03174 0.454637,0.07133 0.257569,0.06753 0.731104,0.189752 1.052301,0.271613 0.321197,0.08186 0.588786,0.151624 0.594643,0.155031 0.01532,0.0089 -0.94314,3.273889 -0.969132,3.301312 -0.01194,0.01259 -0.268545,-0.825518 -0.570241,-1.862469 z"
       id="path3831"
       inkscape:connector-curvature="0"
       transform="translate(0,992.36218)" />
    <path
       style="fill:#d45500;fill-opacity:1;fill-rule:evenodd;stroke:none"
       d="m 35.739152,33.668759 c 0.05885,-0.195322 0.374139,-1.238559 0.700633,-2.318303 l 0.593625,-1.963171 0.260611,2.148347 c 0.143336,1.181591 0.254392,2.154567 0.24679,2.162169 -0.01148,0.01148 -1.824358,0.324111 -1.888146,0.325608 -0.01129,2.53e-4 0.02763,-0.159327 0.08649,-0.35465 l 0,0 z"
       id="path3833"
       inkscape:connector-curvature="0"
       transform="translate(0,992.36218)" />
    <path
       style="fill:#d45500;fill-opacity:1;fill-rule:evenodd;stroke:none"
       d="m 45.506389,31.936949 c 0,-0.01929 -0.164416,-1.007867 -0.365369,-2.196841 -0.200953,-1.188974 -0.35679,-2.17035 -0.346305,-2.180835 0.01049,-0.01049 0.332837,-0.03679 0.716337,-0.05846 2.469461,-0.139508 5.022253,-0.46727 7.618832,-0.978208 1.293409,-0.254508 3.146553,-0.679691 4.159272,-0.954297 l 0.339632,-0.09209 0.0183,0.07289 c 0.03384,0.13485 -0.0023,0.185151 -0.334758,0.465857 -2.650829,2.238192 -5.90459,4.01506 -9.722496,5.309424 -0.599568,0.203269 -2.018617,0.647626 -2.068184,0.647626 -0.0084,0 -0.01526,-0.01578 -0.01526,-0.03507 z"
       id="path3835"
       inkscape:connector-curvature="0"
       transform="translate(0,992.36218)" />
    <path
       style="fill:#ff6600;fill-opacity:1;fill-rule:evenodd;stroke:none"
       d="M 26.36493,57.711759 C 20.375873,56.863893 15.047231,54.311965 10.773382,50.244842 10.146875,49.64864 9.6342785,49.090471 9.6342785,49.004468 c 0,-0.312702 1.3731195,-2.937046 2.1164105,-4.044943 0.419336,-0.625031 1.110352,-1.515881 1.535592,-1.979666 l 0.773164,-0.843245 0.470634,0.434586 c 1.646867,1.520728 4.373359,1.468555 5.968099,-0.114203 0.815172,-0.809047 1.090608,-1.534498 1.337124,-3.521747 l 0.214331,-1.727806 1.210631,-0.377853 c 0.665846,-0.20782 1.325198,-0.409338 1.465225,-0.447818 0.232242,-0.06382 0.3195,0.14339 0.993769,2.359858 0.406545,1.336402 0.876383,2.701763 1.044086,3.034133 0.743412,1.473372 1.88013,2.185349 3.321776,2.080575 1.527082,-0.110984 2.632068,-0.824402 3.170717,-2.047125 0.199719,-0.45336 0.616056,-1.770483 2.001793,-6.332881 l 0.387469,-1.275703 0.901223,-0.148834 c 0.495672,-0.08186 0.920537,-0.129518 0.944145,-0.10591 0.02361,0.02361 0.216367,1.460144 0.428354,3.192303 0.429539,3.509786 0.479607,3.752617 0.933364,4.526896 0.856128,1.460871 2.503021,2.189768 4.396108,1.945667 1.302481,-0.167947 2.504308,-1.013807 3.095635,-2.178747 0.533839,-1.051689 0.51479,-1.807445 -0.144013,-5.713341 -0.318424,-1.887867 -0.578952,-3.459946 -0.578952,-3.493509 0,-0.03356 0.724469,-0.301836 1.609931,-0.596162 3.773392,-1.254269 6.426585,-2.605115 9.224596,-4.696609 0.64622,-0.483045 1.197688,-0.855521 1.225483,-0.827726 0.0278,0.0278 0.111641,0.91562 0.186323,1.972943 0.350541,4.962812 -0.612889,9.786925 -2.853447,14.287874 -4.013047,8.061611 -11.331554,13.54595 -20.252026,15.176452 -1.897184,0.346772 -6.490778,0.439679 -8.396893,0.169832 z"
       id="path3841"
       inkscape:connector-curvature="0"
       transform="translate(0,992.36218)" />
  </g>
  <g
     inkscape:groupmode="layer"
     id="layer2"
     inkscape:label="M"
     style="display:inline" />
</svg>
